<?xml version="1.0" encoding="iso-8859-1"?>
<!-- Uploaded to: SVG Repo, www.svgrepo.com, Generator: SVG Repo Mixer Tools -->
<svg height="800px" width="800px" version="1.1" id="Layer_1" xmlns="http://www.w3.org/2000/svg"
	xmlns:xlink="http://www.w3.org/1999/xlink" viewBox="0 0 512 512" xml:space="preserve">
	<polygon style="fill:#8A6746;" points="307.717,480.653 307.717,512 204.272,512 204.272,480.653 240.321,480.653 240.321,256 
	271.668,256 271.668,480.653 " />
	<polygon style="fill:#664B33;"
		points="307.717,480.653 307.717,512 256.559,512 256.559,256 271.668,256 271.668,480.653 " />
	<polygon style="fill:#DFCCBE;" points="430.89,113.894 256.559,292.916 255.995,293.491 81.11,113.894 " />
	<polygon style="fill:#C9AD91;" points="430.89,113.894 256.559,292.916 256.559,113.894 " />
	<polygon style="fill:#FF9A00;" points="337.277,165.094 256.559,247.986 255.995,248.56 174.712,165.094 " />
	<polygon style="fill:#FF8900;" points="337.277,165.094 256.559,247.986 256.559,165.094 " />
	<polygon style="fill:#8A6746;"
		points="348.991,88.367 294.907,165.094 256.559,165.094 323.37,70.311 335.741,79.026 " />
	<polygon style="fill:#664B33;" points="348.991,88.367 294.907,165.094 276.37,165.094 335.741,79.026 " />
	<path style="fill:#FF3D63;" d="M402.28,49.633c0,27.366-22.267,49.633-49.633,49.633s-49.633-22.267-49.633-49.633
	S325.282,0,352.648,0S402.28,22.267,402.28,49.633z" />
	<path style="fill:#FF0335;"
		d="M402.28,49.633c0,27.366-22.267,49.633-49.633,49.633V0C380.014,0,402.28,22.267,402.28,49.633z" />
</svg>